HIERARCHY
ROOT newVegas:Hips
{
	OFFSET 0.000000 96.479958 0.000000
	CHANNELS 6 Xposition Yposition Zposition Xrotation Yrotation Zrotation
	JOINT newVegas:Pelvis
	{
		OFFSET 0.000000 0.000000 0.000000
		CHANNELS 3 Xrotation Yrotation Zrotation
		JOINT newVegas:LeftUpLeg
		{
			OFFSET 18.735201 -5.666702 -4.541200
			CHANNELS 3 Xrotation Yrotation Zrotation
			JOINT newVegas:LeftLeg
			{
				OFFSET -0.021200 -31.938179 0.493100
				CHANNELS 3 Xrotation Yrotation Zrotation
				JOINT newVegas:LeftFoot
				{
					OFFSET 0.021200 -31.938179 -4.336299
					CHANNELS 3 Xrotation Yrotation Zrotation
					JOINT newVegas:LeftToeBase
					{
						OFFSET 0.943001 -26.722000 15.023500
						CHANNELS 3 Xrotation Yrotation Zrotation
						End Site
						{
							OFFSET 0.000000 30.670183 0.000000
						}
					}
				}
				JOINT newVegas:Left_PantLeg
				{
					OFFSET 0.663870 -9.044666 -1.108900
					CHANNELS 3 Xrotation Yrotation Zrotation
					End Site
					{
						OFFSET 1.415995 20.635357 0.000000
					}
				}
			}
		}
		JOINT newVegas:RightUpLeg
		{
			OFFSET -18.735201 -5.666702 -4.541200
			CHANNELS 3 Xrotation Yrotation Zrotation
			JOINT newVegas:RightLeg
			{
				OFFSET 0.018946 -31.938133 0.493100
				CHANNELS 3 Xrotation Yrotation Zrotation
				JOINT newVegas:RightFoot
				{
					OFFSET -0.018946 -31.938126 -4.336299
					CHANNELS 3 Xrotation Yrotation Zrotation
					JOINT newVegas:RightToeBase
					{
						OFFSET -0.943001 -26.722004 15.023500
						CHANNELS 3 Xrotation Yrotation Zrotation
						End Site
						{
							OFFSET 0.000000 30.670187 0.000000
						}
					}
				}
				JOINT newVegas:Right_PantLeg
				{
					OFFSET -0.661674 -9.044716 -1.108900
					CHANNELS 3 Xrotation Yrotation Zrotation
					End Site
					{
						OFFSET -1.415958 20.635269 0.000000
					}
				}
			}
		}
	}
	JOINT newVegas:Spine
	{
		OFFSET 0.000000 10.199997 -0.299500
		CHANNELS 3 Xrotation Yrotation Zrotation
		JOINT newVegas:Spine1
		{
			OFFSET 0.000000 11.900002 -1.516600
			CHANNELS 3 Xrotation Yrotation Zrotation
			JOINT newVegas:Spine2
			{
				OFFSET 0.000000 13.600006 -2.842500
				CHANNELS 3 Xrotation Yrotation Zrotation
				JOINT newVegas:Neck
				{
					OFFSET 0.000000 9.624100 -2.890100
					CHANNELS 3 Xrotation Yrotation Zrotation
					JOINT newVegas:Head
					{
						OFFSET 0.000000 14.068802 -1.351900
						CHANNELS 3 Xrotation Yrotation Zrotation
						JOINT newVegas:Hair_Back
						{
							OFFSET 0.000000 3.231903 -17.524799
							CHANNELS 3 Xrotation Yrotation Zrotation
							End Site
							{
								OFFSET 0.000000 19.849884 0.000000
							}
						}
						JOINT newVegas:Hair_Front
						{
							OFFSET 0.000000 31.260406 4.573800
							CHANNELS 3 Xrotation Yrotation Zrotation
							JOINT newVegas:Hair_Front1
							{
								OFFSET 0.000000 2.284103 11.993300
								CHANNELS 3 Xrotation Yrotation Zrotation
								JOINT newVegas:Hair_Front2
								{
									OFFSET 0.000000 2.284103 11.993300
									CHANNELS 3 Xrotation Yrotation Zrotation
									End Site
									{
										OFFSET 0.000000 12.208862 0.000000
									}
								}
							}
						}
						JOINT newVegas:Jowel
						{
							OFFSET 0.000000 -7.458206 6.864100
							CHANNELS 3 Xrotation Yrotation Zrotation
							End Site
							{
								OFFSET 0.000000 19.849884 0.000000
							}
						}
					}
				}
				JOINT newVegas:LeftShoulder
				{
					OFFSET 15.263000 10.923401 -0.547700
					CHANNELS 3 Xrotation Yrotation Zrotation
					JOINT newVegas:LeftArm
					{
						OFFSET 25.438599 -2.830597 -13.032500
						CHANNELS 3 Xrotation Yrotation Zrotation
						JOINT newVegas:LeftForeArm
						{
							OFFSET 29.960503 0.000000 0.000000
							CHANNELS 3 Xrotation Yrotation Zrotation
							JOINT newVegas:LeftHand
							{
								OFFSET 27.849251 0.000000 0.000000
								CHANNELS 3 Xrotation Yrotation Zrotation
								JOINT newVegas:LeftHandThumb1
								{
									OFFSET 4.487587 -3.305161 6.305391
									CHANNELS 3 Xrotation Yrotation Zrotation
									JOINT newVegas:LeftHandThumb2
									{
										OFFSET 5.480453 -3.164139 3.164143
										CHANNELS 3 Xrotation Yrotation Zrotation
										JOINT newVegas:LeftHandThumb3
										{
											OFFSET 5.159721 -2.978973 2.978967
											CHANNELS 3 Xrotation Yrotation Zrotation
											End Site
											{
												OFFSET 2.494507 5.926697 1.738678
											}
										}
									}
								}
								JOINT newVegas:LeftHandIndex1
								{
									OFFSET 18.578728 -0.527832 5.208049
									CHANNELS 3 Xrotation Yrotation Zrotation
									JOINT newVegas:LeftHandIndex2
									{
										OFFSET 3.192009 0.000000 0.000000
										CHANNELS 3 Xrotation Yrotation Zrotation
										JOINT newVegas:LeftHandIndex3
										{
											OFFSET 3.835129 0.000000 0.000000
											CHANNELS 3 Xrotation Yrotation Zrotation
											End Site
											{
												OFFSET -0.034599 3.816971 0.371180
											}
										}
									}
								}
								JOINT newVegas:LeftHandMiddle1
								{
									OFFSET 18.476105 0.000000 0.000000
									CHANNELS 3 Xrotation Yrotation Zrotation
									JOINT newVegas:LeftHandMiddle2
									{
										OFFSET 3.324875 0.000000 0.000000
										CHANNELS 3 Xrotation Yrotation Zrotation
										JOINT newVegas:LeftHandMiddle3
										{
											OFFSET 4.596550 0.000000 0.000000
											CHANNELS 3 Xrotation Yrotation Zrotation
											End Site
											{
												OFFSET 0.057701 4.578827 0.399218
											}
										}
									}
								}
								JOINT newVegas:LeftHandRing1
								{
									OFFSET 17.732719 0.121887 -4.201567
									CHANNELS 3 Xrotation Yrotation Zrotation
									JOINT newVegas:LeftHandRing2
									{
										OFFSET 2.733170 0.000000 0.000000
										CHANNELS 3 Xrotation Yrotation Zrotation
										JOINT newVegas:LeftHandRing3
										{
											OFFSET 3.178268 0.000000 0.000000
											CHANNELS 3 Xrotation Yrotation Zrotation
											End Site
											{
												OFFSET 0.119102 3.170624 0.185394
											}
										}
									}
								}
								JOINT newVegas:LeftHandPinky1
								{
									OFFSET 15.989624 -0.606689 -7.535461
									CHANNELS 3 Xrotation Yrotation Zrotation
									JOINT newVegas:LeftHandPinky2
									{
										OFFSET 2.538986 0.000000 0.000000
										CHANNELS 3 Xrotation Yrotation Zrotation
										JOINT newVegas:LeftHandPinky3
										{
											OFFSET 2.593102 0.000000 0.000000
											CHANNELS 3 Xrotation Yrotation Zrotation
											End Site
											{
												OFFSET -0.150902 2.584198 0.152708
											}
										}
									}
								}
							}
							JOINT newVegas:Left_Sleeve
							{
								OFFSET 0.267448 -0.649796 0.577675
								CHANNELS 3 Xrotation Yrotation Zrotation
								End Site
								{
									OFFSET 0.000000 15.991241 0.000000
								}
							}
							JOINT newVegas:Left_CapeC
							{
								OFFSET 15.715958 -8.608795 -6.935905
								CHANNELS 3 Xrotation Yrotation Zrotation
								JOINT newVegas:Left_CapeC1
								{
									OFFSET 0.000000 -8.688499 0.000000
									CHANNELS 3 Xrotation Yrotation Zrotation
									End Site
									{
										OFFSET 0.000000 8.688499 0.000000
									}
								}
							}
						}
						JOINT newVegas:Left_CapeB
						{
							OFFSET 26.118385 -8.608795 -7.079235
							CHANNELS 3 Xrotation Yrotation Zrotation
							JOINT newVegas:Left_CapeB1
							{
								OFFSET 0.000000 -8.688499 0.000000
								CHANNELS 3 Xrotation Yrotation Zrotation
								End Site
								{
									OFFSET 0.000000 8.688499 0.000000
								}
							}
						}
						JOINT newVegas:Left_CapeA
						{
							OFFSET 5.115639 -8.608795 -10.395809
							CHANNELS 3 Xrotation Yrotation Zrotation
							JOINT newVegas:Left_CapeA1
							{
								OFFSET 0.000000 -8.688499 0.000000
								CHANNELS 3 Xrotation Yrotation Zrotation
								End Site
								{
									OFFSET 0.000000 8.688499 0.000000
								}
							}
						}
					}
				}
				JOINT newVegas:RightShoulder
				{
					OFFSET -15.263000 10.923401 -0.547700
					CHANNELS 3 Xrotation Yrotation Zrotation
					JOINT newVegas:RightArm
					{
						OFFSET -25.438599 -2.830597 -13.032500
						CHANNELS 3 Xrotation Yrotation Zrotation
						JOINT newVegas:RightForeArm
						{
							OFFSET -29.960503 0.000000 0.000000
							CHANNELS 3 Xrotation Yrotation Zrotation
							JOINT newVegas:RightHand
							{
								OFFSET -27.849251 0.000000 0.000000
								CHANNELS 3 Xrotation Yrotation Zrotation
								JOINT newVegas:RightHandThumb1
								{
									OFFSET -4.487587 -3.305161 6.305391
									CHANNELS 3 Xrotation Yrotation Zrotation
									JOINT newVegas:RightHandThumb2
									{
										OFFSET -5.480453 -3.164139 3.164143
										CHANNELS 3 Xrotation Yrotation Zrotation
										JOINT newVegas:RightHandThumb3
										{
											OFFSET -5.159721 -2.978973 2.978967
											CHANNELS 3 Xrotation Yrotation Zrotation
											End Site
											{
												OFFSET -2.494507 5.926697 1.738678
											}
										}
									}
								}
								JOINT newVegas:RightHandIndex1
								{
									OFFSET -18.578728 -0.527832 5.208049
									CHANNELS 3 Xrotation Yrotation Zrotation
									JOINT newVegas:RightHandIndex2
									{
										OFFSET -3.192009 0.000000 0.000000
										CHANNELS 3 Xrotation Yrotation Zrotation
										JOINT newVegas:RightHandIndex3
										{
											OFFSET -3.835129 0.000000 0.000000
											CHANNELS 3 Xrotation Yrotation Zrotation
											End Site
											{
												OFFSET 0.034599 3.816971 0.371180
											}
										}
									}
								}
								JOINT newVegas:RightHandMiddle1
								{
									OFFSET -18.476105 0.000000 0.000000
									CHANNELS 3 Xrotation Yrotation Zrotation
									JOINT newVegas:RightHandMiddle2
									{
										OFFSET -3.324875 0.000000 0.000000
										CHANNELS 3 Xrotation Yrotation Zrotation
										JOINT newVegas:RightHandMiddle3
										{
											OFFSET -4.596550 0.000000 0.000000
											CHANNELS 3 Xrotation Yrotation Zrotation
											End Site
											{
												OFFSET -0.057701 4.578827 0.399218
											}
										}
									}
								}
								JOINT newVegas:RightHandRing1
								{
									OFFSET -17.732719 0.121887 -4.201567
									CHANNELS 3 Xrotation Yrotation Zrotation
									JOINT newVegas:RightHandRing2
									{
										OFFSET -2.733170 0.000000 0.000000
										CHANNELS 3 Xrotation Yrotation Zrotation
										JOINT newVegas:RightHandRing3
										{
											OFFSET -3.178268 0.000000 0.000000
											CHANNELS 3 Xrotation Yrotation Zrotation
											End Site
											{
												OFFSET -0.119102 3.170624 0.185394
											}
										}
									}
								}
								JOINT newVegas:RightHandPinky1
								{
									OFFSET -15.989624 -0.606689 -7.535461
									CHANNELS 3 Xrotation Yrotation Zrotation
									JOINT newVegas:RightHandPinky2
									{
										OFFSET -2.538986 0.000000 0.000000
										CHANNELS 3 Xrotation Yrotation Zrotation
										JOINT newVegas:RightHandPinky3
										{
											OFFSET -2.593102 0.000000 0.000000
											CHANNELS 3 Xrotation Yrotation Zrotation
											End Site
											{
												OFFSET 0.150902 2.584198 0.152708
											}
										}
									}
								}
							}
							JOINT newVegas:Right_CapeC
							{
								OFFSET -15.715958 -8.608795 -6.935905
								CHANNELS 3 Xrotation Yrotation Zrotation
								JOINT newVegas:Right_CapeC1
								{
									OFFSET 0.000000 -8.688499 0.000000
									CHANNELS 3 Xrotation Yrotation Zrotation
									End Site
									{
										OFFSET 0.000000 8.688499 0.000000
									}
								}
							}
							JOINT newVegas:Right_Sleeve
							{
								OFFSET -0.267448 -0.649994 0.577675
								CHANNELS 3 Xrotation Yrotation Zrotation
								End Site
								{
									OFFSET 0.000000 15.991302 0.000000
								}
							}
						}
						JOINT newVegas:Right_CapeA
						{
							OFFSET -5.115540 -8.608795 -10.395824
							CHANNELS 3 Xrotation Yrotation Zrotation
							JOINT newVegas:Right_CapeA1
							{
								OFFSET 0.000000 -8.688499 0.000000
								CHANNELS 3 Xrotation Yrotation Zrotation
								End Site
								{
									OFFSET 0.000000 8.688499 0.000000
								}
							}
						}
						JOINT newVegas:Right_CapeB
						{
							OFFSET -26.118187 -8.608795 -7.079266
							CHANNELS 3 Xrotation Yrotation Zrotation
							JOINT newVegas:Right_CapeB1
							{
								OFFSET 0.000000 -8.688499 0.000000
								CHANNELS 3 Xrotation Yrotation Zrotation
								End Site
								{
									OFFSET 0.000000 8.688499 0.000000
								}
							}
						}
					}
				}
				JOINT newVegas:Left_Collar
				{
					OFFSET 18.625099 8.655502 8.828100
					CHANNELS 3 Xrotation Yrotation Zrotation
					JOINT newVegas:Left_Collar1
					{
						OFFSET 14.783401 10.540405 -1.259500
						CHANNELS 3 Xrotation Yrotation Zrotation
						End Site
						{
							OFFSET 0.000000 18.199875 0.000000
						}
					}
				}
				JOINT newVegas:Collar_Back
				{
					OFFSET 0.000000 15.630707 -20.132601
					CHANNELS 3 Xrotation Yrotation Zrotation
					End Site
					{
						OFFSET 0.000000 22.523010 0.000000
					}
				}
				JOINT newVegas:Left_Peck
				{
					OFFSET 17.239599 -5.132599 25.482599
					CHANNELS 3 Xrotation Yrotation Zrotation
					End Site
					{
						OFFSET 0.000000 22.523010 0.000000
					}
				}
				JOINT newVegas:Right_Peck
				{
					OFFSET -17.239599 -5.132202 25.482599
					CHANNELS 3 Xrotation Yrotation Zrotation
					End Site
					{
						OFFSET 0.000000 22.523010 0.000000
					}
				}
				JOINT newVegas:Right_Collar
				{
					OFFSET -18.625099 8.655792 8.828100
					CHANNELS 3 Xrotation Yrotation Zrotation
					JOINT newVegas:Right_Collar1
					{
						OFFSET -14.783401 10.539993 -1.259500
						CHANNELS 3 Xrotation Yrotation Zrotation
						End Site
						{
							OFFSET 0.000000 18.199631 0.000000
						}
					}
				}
			}
		}
		JOINT newVegas:Belly
		{
			OFFSET 0.000000 -6.540398 9.014299
			CHANNELS 3 Xrotation Yrotation Zrotation
			End Site
			{
				OFFSET 0.000000 11.566666 0.000000
			}
		}
	}
	JOINT newVegas:ElvisFacialAnim_Joint
	{
		OFFSET 1.000000 -95.330101 -8.825800
		CHANNELS 3 Xrotation Yrotation Zrotation
		End Site
		{
			OFFSET 0.000000 35.315800 0.000000
		}
	}
}
MOTION
Frames: 4
Frame Time: 0.033333
-2.499011 84.300240 -2.014123 0.614178 -26.048043 -3.022684 -0.000000 -0.000000 0.000000 -48.254726 -1.525787 20.491614 54.373155 -0.789644 1.938085 -5.205542 1.467795 -13.386703 -0.000000 0.000000 -0.000000 -0.000000 -0.000000 -0.000000 -14.016400 -6.116774 -15.131678 47.252526 8.878868 0.001902 -33.998001 -3.783426 11.609372 0.000000 -0.000002 -0.000000 -0.000001 0.000001 -0.000000 11.448538 1.425015 0.494296 2.916483 0.421342 0.431738 2.912059 0.448347 0.432666 1.540433 0.729130 0.561573 1.540436 0.729137 0.561570 0.000000 -0.000001 -0.000000 1.540506 0.729128 0.561571 1.540433 0.729144 0.561570 -0.000001 0.000001 -0.000001 0.000000 -0.000001 -0.000000 1.424012 -10.591073 3.671530 -68.763606 -4.116141 -50.111151 -0.000996 -95.701216 -0.000993 23.772835 -31.544245 14.558476 4.810902 11.562815 -4.410304 9.478224 27.119778 -3.461963 0.000001 -0.000003 -0.000006 5.501082 6.742038 -78.402997 7.534544 6.850260 -95.461278 0.000002 0.000001 0.000000 5.499174 6.741623 -78.386775 5.502976 6.742405 -78.419185 -0.000002 0.000001 0.000000 5.501074 6.741999 -78.402977 5.501089 6.742015 -78.403017 -0.000000 -0.000001 0.000000 9.503640 7.557825 -78.390935 5.510847 2.657449 -78.522225 0.000003 -0.000003 -0.000001 -0.000000 -0.000001 -0.000001 -0.000000 -0.000001 -0.000001 -0.000000 -0.000000 -0.000000 -0.000000 -0.000002 0.000000 -0.000000 -0.000003 0.000000 -0.000000 -0.000002 0.000000 -0.000000 -0.000003 0.000001 2.328068 19.210564 -2.705771 -65.230212 20.902237 66.181453 -0.000038 116.751279 0.000029 -0.782187 13.128344 12.995909 -2.591811 -14.355439 12.782095 11.924042 -26.565445 1.353594 0.000002 -0.000003 0.000001 6.062533 -6.891835 82.658656 6.062528 -6.891824 82.658676 0.000001 0.000001 0.000001 6.062524 -6.891806 82.658662 6.062521 -6.891811 82.658690 -0.000001 0.000001 -0.000001 6.062521 -6.891794 82.658662 6.062535 -6.891809 82.658690 0.000000 0.000001 0.000000 6.062539 -6.891850 82.658669 6.062515 -6.891805 82.658697 0.000002 -0.000002 -0.000002 -0.000000 0.000000 -0.000001 0.000000 -0.000001 -0.000001 0.000000 0.000001 -0.000001 -0.000001 0.000002 -0.000000 -0.000001 0.000003 -0.000000 -0.000001 0.000002 -0.000000 -0.000001 0.000003 0.000000 0.000001 0.000003 -0.000000 0.000001 0.000003 -0.000000 0.000001 0.000003 -0.000000 0.000001 0.000003 -0.000000 0.000001 0.000003 -0.000000 0.000001 0.000003 -0.000000 0.000001 0.000003 -0.000000 0.000000 -0.000001 0.000000 -0.000000 -0.000000 0.000000 
-2.499091 84.281586 -2.013263 0.649399 -26.056169 -3.019185 -0.000000 0.000002 -0.000000 -48.321375 -1.537682 20.515399 54.442663 -0.793886 1.933571 -5.237376 1.471648 -13.384983 -0.000000 -0.000000 -0.000000 -0.000000 0.000001 0.000000 -14.079282 -6.134594 -15.169459 47.287910 8.904824 0.037319 -34.012375 -3.733230 11.603633 0.000000 0.000000 0.000000 0.000000 0.000000 0.000001 11.464512 1.451150 0.519784 2.918486 0.428452 0.434732 2.914182 0.455435 0.435732 1.536005 0.731079 0.562835 1.536011 0.731071 0.562842 0.000001 -0.000001 -0.000000 1.536007 0.731078 0.562835 1.535999 0.731090 0.562834 -0.000002 0.000001 -0.000001 0.000001 -0.000001 -0.000000 1.420830 -10.550469 3.668615 -68.850001 -4.182093 -50.099417 -0.001684 -95.677488 -0.001679 23.786737 -31.508301 14.503208 4.810900 11.562819 -4.410287 9.478227 27.119765 -3.461955 -0.000001 -0.000003 -0.000008 5.501079 6.742040 -78.402970 7.534550 6.850260 -95.461272 0.000002 0.000002 0.000001 5.499179 6.741624 -78.386789 5.502981 6.742402 -78.419212 -0.000002 0.000000 0.000000 5.501076 6.741998 -78.402970 5.501088 6.742020 -78.402997 0.000001 -0.000001 0.000001 9.503640 7.557823 -78.390942 5.510833 2.657456 -78.522197 0.000002 0.000000 0.000000 0.000001 0.000000 0.000004 0.000001 0.000000 0.000004 0.000000 0.000001 0.000004 -0.000000 0.000000 0.000000 -0.000000 -0.000001 0.000000 -0.000000 0.000000 0.000000 -0.000000 -0.000001 0.000001 2.324527 19.206077 -2.695531 -65.343976 20.944896 66.225705 0.000023 116.752481 -0.000045 -0.716547 13.147762 13.088046 -2.591812 -14.355441 12.782088 11.924047 -26.565454 1.353594 0.000003 0.000001 -0.000000 6.062525 -6.891835 82.658662 6.062532 -6.891827 82.658676 -0.000001 0.000001 0.000000 6.062518 -6.891807 82.658656 6.062521 -6.891816 82.658676 0.000000 0.000000 0.000001 6.062515 -6.891792 82.658669 6.062532 -6.891820 82.658683 0.000000 0.000002 0.000002 6.062540 -6.891848 82.658656 6.062503 -6.891809 82.658676 0.000000 0.000001 0.000001 -0.000003 -0.000001 0.000001 -0.000000 0.000002 0.000002 -0.000002 -0.000000 0.000001 -0.000002 0.000003 -0.000002 -0.000002 0.000004 -0.000001 -0.000002 0.000003 -0.000002 -0.000002 0.000004 -0.000000 0.000002 0.000001 -0.000001 0.000002 0.000001 -0.000001 0.000002 0.000001 -0.000001 0.000002 0.000001 -0.000001 0.000002 0.000001 -0.000001 0.000002 0.000001 -0.000001 0.000002 0.000001 -0.000001 -0.000001 0.000000 0.000001 -0.000000 0.000002 -0.000000 
-2.500999 84.256958 -2.009933 0.674324 -26.124680 -3.014075 -0.000000 -0.000001 -0.000000 -48.359187 -1.560571 20.541785 54.544911 -0.753870 1.942997 -5.305837 1.483381 -13.420289 0.000000 -0.000000 -0.000000 -0.000000 0.000001 0.000001 -14.185593 -6.124289 -15.210128 47.374014 8.909337 0.040929 -34.029594 -3.643598 11.631372 -0.000000 -0.000002 0.000000 0.000001 0.000000 -0.000003 11.480761 1.480315 0.529056 2.924509 0.435875 0.436558 2.919399 0.462833 0.437819 1.534886 0.733871 0.566255 1.534885 0.733886 0.566251 0.000003 0.000000 0.000000 1.534895 0.733882 0.566252 1.534959 0.733867 0.566254 -0.000001 0.000001 -0.000000 0.000003 0.000000 0.000000 1.415495 -10.480105 3.665918 -68.945733 -4.225328 -50.121916 -0.002547 -95.617799 -0.002538 23.762539 -31.530680 14.512883 4.810903 11.562820 -4.410281 9.478229 27.119789 -3.461954 0.000001 0.000002 0.000001 5.501089 6.742046 -78.402990 7.534540 6.850259 -95.461258 0.000003 -0.000001 -0.000000 5.499175 6.741622 -78.386768 5.502972 6.742400 -78.419212 -0.000002 -0.000000 0.000000 5.501073 6.742003 -78.402970 5.501089 6.742012 -78.403004 -0.000001 -0.000002 0.000000 9.503643 7.557821 -78.390949 5.510847 2.657458 -78.522211 0.000002 -0.000003 0.000000 0.000000 -0.000003 0.000002 0.000000 -0.000003 0.000002 0.000000 -0.000003 0.000002 -0.000000 -0.000002 0.000000 -0.000000 -0.000003 0.000000 -0.000000 -0.000002 0.000000 -0.000000 -0.000003 0.000001 2.327725 19.257667 -2.687109 -65.458614 20.943672 66.266591 -0.000003 116.739353 -0.000009 -0.779623 13.158586 13.244241 -2.591809 -14.355439 12.782102 11.924049 -26.565433 1.353598 -0.000000 0.000000 -0.000000 6.062531 -6.891835 82.658676 6.062526 -6.891830 82.658621 0.000003 0.000001 -0.000001 6.062523 -6.891806 82.658676 6.062516 -6.891812 82.658628 0.000000 0.000001 0.000002 6.062516 -6.891792 82.658669 6.062527 -6.891811 82.658628 -0.000000 0.000004 -0.000002 6.062537 -6.891847 82.658676 6.062508 -6.891806 82.658656 0.000002 -0.000002 0.000002 -0.000000 0.000001 0.000001 -0.000000 0.000000 -0.000002 0.000000 0.000001 0.000001 0.000000 -0.000003 0.000001 0.000000 -0.000003 0.000002 0.000000 -0.000003 0.000001 0.000000 -0.000003 0.000002 -0.000000 -0.000003 0.000000 -0.000000 -0.000003 0.000000 -0.000000 -0.000003 0.000000 -0.000000 -0.000003 0.000000 -0.000000 -0.000003 0.000000 -0.000000 -0.000003 0.000000 -0.000000 -0.000003 0.000000 -0.000001 0.000001 -0.000000 -0.000000 -0.000001 -0.000000 
-2.500565 84.229355 -2.002645 0.675553 -26.204424 -3.016303 -0.000000 0.000000 0.000000 -48.379422 -1.576454 20.567568 54.673164 -0.687133 1.957838 -5.391236 1.498651 -13.459962 0.000000 -0.000001 -0.000000 -0.000000 0.000001 0.000001 -14.281111 -6.111168 -15.252033 47.479206 8.937025 0.030922 -34.054719 -3.583583 11.653570 -0.000000 -0.000002 -0.000000 0.000003 -0.000001 0.000001 11.508763 1.495696 0.534173 2.931730 0.439569 0.439209 2.926423 0.466615 0.440424 1.536308 0.737628 0.570403 1.536290 0.737626 0.570398 0.000000 0.000000 -0.000001 1.536225 0.737637 0.570401 1.536363 0.737643 0.570398 -0.000001 0.000002 -0.000000 0.000000 0.000000 -0.000001 1.410009 -10.421129 3.664407 -69.032941 -4.248131 -50.132403 -0.002014 -95.542988 -0.002011 23.579135 -31.599016 14.497551 4.810902 11.562820 -4.410273 9.478221 27.119765 -3.461966 0.000001 -0.000003 -0.000003 5.501087 6.742036 -78.402983 7.534536 6.850255 -95.461278 0.000003 0.000002 0.000001 5.499174 6.741625 -78.386762 5.502972 6.742404 -78.419185 0.000001 0.000000 0.000000 5.501074 6.741996 -78.402983 5.501095 6.742017 -78.402997 0.000001 -0.000001 0.000001 9.503645 7.557825 -78.390935 5.510844 2.657457 -78.522225 0.000002 -0.000003 0.000001 -0.000000 0.000000 0.000001 -0.000000 0.000000 0.000001 -0.000000 0.000001 0.000001 0.000001 0.000001 0.000000 0.000001 0.000000 -0.000000 0.000001 0.000001 0.000000 -0.000000 -0.000000 0.000001 2.334676 19.327892 -2.678813 -65.574420 20.941252 66.311329 -0.000036 116.707579 0.000030 -0.870138 13.155388 13.314489 -2.591810 -14.355441 12.782109 11.924051 -26.565447 1.353602 0.000004 -0.000000 -0.000001 6.062527 -6.891835 82.658656 6.062529 -6.891824 82.658676 0.000000 -0.000000 -0.000000 6.062525 -6.891809 82.658669 6.062522 -6.891807 82.658669 -0.000001 -0.000000 0.000000 6.062519 -6.891792 82.658669 6.062534 -6.891818 82.658669 0.000001 -0.000001 -0.000001 6.062550 -6.891851 82.658669 6.062514 -6.891805 82.658656 -0.000000 0.000002 -0.000001 -0.000000 -0.000001 0.000003 0.000001 0.000000 0.000001 0.000000 -0.000000 0.000001 -0.000002 0.000002 -0.000002 -0.000002 0.000003 0.000000 -0.000002 0.000002 -0.000002 -0.000002 0.000003 0.000001 0.000003 0.000000 0.000000 0.000003 0.000000 0.000000 0.000003 0.000000 0.000000 0.000003 0.000000 0.000000 0.000003 0.000000 0.000000 0.000003 0.000000 0.000000 0.000003 0.000000 0.000000 0.000001 -0.000001 0.000000 -0.000000 0.000000 0.000000 
